<?xml version="1.0" encoding="utf-8"?>
<!-- Generator: Adobe Illustrator 16.0.0, SVG Export Plug-In . SVG Version: 6.00 Build 0)  -->
<!DOCTYPE svg PUBLIC "-//W3C//DTD SVG 1.1//EN" "http://www.w3.org/Graphics/SVG/1.1/DTD/svg11.dtd">
<svg version="1.1" id="Layer_1" xmlns="http://www.w3.org/2000/svg" xmlns:xlink="http://www.w3.org/1999/xlink" x="0px" y="0px"
	 width="960px" height="560px" viewBox="0 0 960 560" enable-background="new 0 0 960 560" xml:space="preserve">
<g>
	<path d="M47.032,126.619H27.22V79.994h19.812c13.302,0,18.622,7.141,18.622,17.502v12.461
		C65.654,120.318,60.334,126.619,47.032,126.619z M50.953,96.236c0-3.99-1.68-5.25-5.11-5.25h-3.99v24.573h3.99
		c3.43,0,5.11-1.26,5.11-5.25V96.236z"/>
	<path d="M84.831,127.179c-8.541,0-14.631-5.531-14.631-12.951v-9.661c0-7.421,6.091-12.952,14.631-12.952
		c8.611,0,14.072,5.531,14.072,12.812v6.441H81.681v4.97c0,2.03,1.05,3.57,3.851,3.57c2.59,0,3.641-1.61,3.641-3.57v-1.82h9.731
		v0.771C98.903,122.769,93.512,127.179,84.831,127.179z M88.052,102.747c0-1.82-1.26-3.22-3.221-3.22c-1.89,0-3.15,1.4-3.15,3.22
		v4.621h6.371V102.747z"/>
	<path d="M131.102,127.179c-5.181,0-7.281-1.61-8.961-5.531c-2.31,3.781-5.741,5.531-10.361,5.531c-5.18,0-9.311-3.43-9.311-9.451
		v-0.28c0-6.371,5.951-9.731,17.082-10.711v-4.061c0-1.96-0.49-3.081-2.521-3.081c-1.54,0-2.45,1.05-2.45,2.94v1.89h-10.361v-1.54
		c0-7.141,5.181-11.271,13.372-11.271c8.821,0,13.651,5.181,13.651,11.972v14.631c0,1.19,0.91,1.82,2.31,1.82v7.141H131.102z
		 M119.551,111.428c-4.061,0.28-6.021,1.68-6.021,4.271v1.4c0,2.03,1.26,3.15,3.08,3.15c2.03,0,2.94-1.19,2.94-3.15V111.428z"/>
	<path d="M158.891,103.167c-7.141-1.61-9.801,1.12-9.801,4.411v19.042h-11.761V92.246h9.941l0.63,7.071
		c1.26-6.021,5.601-8.821,11.341-7.211L158.891,103.167z"/>
	<path d="M192.28,90.706v8.121h10.851v9.731H192.28v18.062h-14.632V79.994h32.483v10.711H192.28z"/>
	<path d="M234.001,103.167c-7.141-1.61-9.801,1.12-9.801,4.411v19.042h-11.761V92.246h9.941l0.63,7.071
		c1.26-6.021,5.601-8.821,11.341-7.211L234.001,103.167z"/>
	<path d="M251.921,127.179c-8.541,0-14.631-4.48-14.631-13.301v-8.961c0-8.681,6.091-13.302,14.631-13.302
		c8.541,0,14.632,4.621,14.632,13.302v8.961C266.553,122.699,260.462,127.179,251.921,127.179z M255.071,102.887
		c0-2.38-1.26-3.36-3.15-3.36c-1.96,0-3.22,0.98-3.22,3.36v13.091c0,2.38,1.26,3.291,3.22,3.291c1.891,0,3.15-0.91,3.15-3.291
		V102.887z"/>
	<path d="M298.052,96.516c-1.12,0-1.75-0.21-2.871-0.84c2.311,1.89,3.5,3.92,3.5,6.651v0.56c0,6.091-4.97,10.221-13.721,10.221
		c-0.84,0-2.24-0.07-3.011-0.21c-1.89,0-2.66,0.771-2.66,1.96c0,1.26,1.33,1.82,6.511,1.82c10.571,0,15.052,4.13,15.052,10.361v0.35
		c0,6.651-5.671,11.271-15.682,11.271c-9.451,0-15.262-3.85-15.262-8.891v-0.7c0-2.31,1.96-5.041,4.971-6.161
		c-3.081-1.19-4.341-3.291-4.341-5.601c0-2.8,2.661-5.741,6.791-6.09c-3.5-0.98-6.021-4.831-6.021-8.751v-0.28
		c0-6.021,5.811-10.571,13.651-10.571c2.45,0,4.271,0.63,5.11,0.63c3.36,0,3.92-1.47,3.92-4.271h8.331
		c0.28,1.61,0.35,2.45,0.35,3.43C302.673,94.346,300.853,96.516,298.052,96.516z M290.841,127.669c0-2.17-2.03-3.15-5.601-3.15
		c-3.5,0-5.391,0.98-5.391,3.15v0.21c0,2.03,1.89,3.01,5.391,3.01c3.641,0,5.601-0.98,5.601-3.01V127.669z M288.181,102.117
		c0-1.75-1.05-3.291-3.22-3.291c-2.101,0-3.15,1.54-3.15,3.291v1.26c0,1.75,1.05,3.29,3.15,3.29c2.17,0,3.22-1.54,3.22-3.29V102.117
		z"/>
	<path d="M303.368,134.74v-2.73c2.59,0,4.621-1.82,4.621-5.391h-4.621v-11.131h9.941v10.151
		C313.309,130.819,309.389,134.74,303.368,134.74z"/>
	<path d="M27.22,294.619v-46.625h14.632v46.625H27.22z"/>
	<path d="M96.173,294.619v-23.592c0-1.75-0.98-3.01-2.59-3.01c-1.75,0-2.8,1.47-2.8,3.22v23.382H78.952v-23.803
		c0-1.82-0.98-3.08-2.59-3.08c-1.68,0-2.8,1.47-2.8,3.291v23.592H61.8v-34.374h10.151l1.05,6.371c1.4-4.2,4.271-7.001,8.611-7.001
		c3.991,0,6.861,2.661,7.911,7.071c1.89-4.9,5.041-7.071,9.241-7.071c6.091,0,9.171,3.921,9.171,10.221v24.783H96.173z"/>
	<path d="M140.692,295.18c-5.181,0-7.281-1.611-8.961-5.531c-2.311,3.781-5.741,5.531-10.361,5.531c-5.18,0-9.311-3.431-9.311-9.451
		v-0.28c0-6.371,5.95-9.731,17.082-10.711v-4.061c0-1.96-0.49-3.081-2.52-3.081c-1.541,0-2.451,1.05-2.451,2.94v1.89H113.81v-1.54
		c0-7.141,5.181-11.271,13.371-11.271c8.821,0,13.652,5.181,13.652,11.972v14.632c0,1.189,0.91,1.82,2.31,1.82v7.141H140.692z
		 M129.141,279.428c-4.061,0.28-6.021,1.68-6.021,4.271v1.399c0,2.031,1.26,3.15,3.08,3.15c2.03,0,2.94-1.189,2.94-3.15V279.428z"/>
	<path d="M166.171,294.619l-0.56-3.99c-1.89,2.87-4.9,4.551-8.541,4.551c-7.141,0-10.921-5.251-10.921-11.972v-12.181
		c0-6.161,4.55-11.412,9.731-11.412c3.22,0,5.391,1.19,7.421,3.36v-14.981h11.691v46.625H166.171z M163.301,271.447
		c0-2.17-1.12-3.641-2.8-3.641s-2.871,1.47-2.871,3.641v11.971c0,2.17,1.19,3.641,2.871,3.641s2.8-1.471,2.8-3.641V271.447z"/>
	<path d="M194.87,295.18c-8.541,0-14.631-5.531-14.631-12.951v-9.662c0-7.421,6.091-12.952,14.631-12.952
		c8.611,0,14.072,5.531,14.072,12.812v6.441H191.72v4.97c0,2.03,1.05,3.57,3.851,3.57c2.59,0,3.641-1.609,3.641-3.57v-1.82h9.731
		v0.771C208.942,290.769,203.551,295.18,194.87,295.18z M198.091,270.747c0-1.82-1.26-3.22-3.221-3.22c-1.89,0-3.15,1.4-3.15,3.22
		v4.621h6.371V270.747z"/>
	<path d="M242.33,269.207v15.051c0,4.131,0.63,7.421,2.73,10.361h-12.461c-1.61-2.66-2.03-5.601-2.03-10.361v-15.051h-5.041v-8.541
		h5.391v-6.371l11.411-2.17v8.541h6.23v8.541H242.33z"/>
	<path d="M269.069,294.619v-23.803c0-1.75-1.12-3.01-2.59-3.01c-1.82,0-3.01,1.47-3.01,3.221v23.592h-11.761v-46.625h11.761v16.592
		c1.82-2.8,4.831-4.971,9.171-4.971c5.531,0,8.191,3.641,8.191,9.311v25.693H269.069z"/>
	<path d="M286.566,294.619v-34.374h11.761v34.374H286.566z M286.706,256.465v-8.471h11.481v8.471H286.706z"/>
	<path d="M316.597,295.18c-9.241,0-14.142-4.761-14.142-10.992v-1.189h9.661v0.77c0,2.451,1.68,3.501,3.99,3.501
		c2.38,0,3.221-0.98,3.221-2.591c0-4.55-16.242-3.359-16.242-14.141c0-6.861,5.67-10.921,13.651-10.921
		c8.471,0,13.021,5.321,13.021,11.832v0.35h-9.661v-1.12c0-1.89-1.33-3.15-3.22-3.15c-1.891,0-2.94,0.84-2.94,2.24
		c0,4.271,16.242,4.061,16.242,14.702C330.178,289.578,326.398,295.18,316.597,295.18z"/>
	<path d="M382.959,294.619h-9.661l-3.43-14.352l-0.91-4.48l-0.98,4.411l-3.5,14.421h-9.521l-9.451-34.374h11.411l2.8,15.472
		l0.84,4.9l0.84-4.9l3.291-15.472h9.381l3.22,15.472l0.84,4.9l0.84-4.9l2.94-15.472h10.711L382.959,294.619z"/>
	<path d="M408.997,295.18c-8.541,0-14.631-5.531-14.631-12.951v-9.662c0-7.421,6.091-12.952,14.631-12.952
		c8.611,0,14.072,5.531,14.072,12.812v6.441h-17.222v4.97c0,2.03,1.05,3.57,3.851,3.57c2.59,0,3.641-1.609,3.641-3.57v-1.82h9.731
		v0.771C423.069,290.769,417.678,295.18,408.997,295.18z M412.218,270.747c0-1.82-1.26-3.22-3.221-3.22c-1.89,0-3.15,1.4-3.15,3.22
		v4.621h6.371V270.747z"/>
	<path d="M446.237,295.18c-3.71,0-6.721-1.681-8.611-4.551l-0.98,3.99h-8.401v-46.625h11.621v16.032
		c1.891-2.66,4.831-4.411,8.051-4.411c5.111,0,9.101,5.111,9.101,11.412v12.181C457.018,289.929,453.378,295.18,446.237,295.18z
		 M445.607,271.447c0-2.17-1.19-3.641-2.8-3.641c-1.75,0-2.94,1.47-2.94,3.641v11.971c0,2.17,1.19,3.641,2.94,3.641
		c1.61,0,2.8-1.471,2.8-3.641V271.447z"/>
	<path d="M474.656,295.18c-9.241,0-14.142-4.761-14.142-10.992v-1.189h9.661v0.77c0,2.451,1.68,3.501,3.99,3.501
		c2.38,0,3.221-0.98,3.221-2.591c0-4.55-16.242-3.359-16.242-14.141c0-6.861,5.67-10.921,13.651-10.921
		c8.471,0,13.021,5.321,13.021,11.832v0.35h-9.661v-1.12c0-1.89-1.33-3.15-3.22-3.15c-1.891,0-2.94,0.84-2.94,2.24
		c0,4.271,16.241,4.061,16.241,14.702C488.237,289.578,484.457,295.18,474.656,295.18z"/>
	<path d="M492.646,294.619v-34.374h11.761v34.374H492.646z M492.785,256.465v-8.471h11.481v8.471H492.785z"/>
	<path d="M524.846,269.207v15.051c0,4.131,0.63,7.421,2.73,10.361h-12.462c-1.61-2.66-2.03-5.601-2.03-10.361v-15.051h-5.04v-8.541
		h5.391v-6.371l11.411-2.17v8.541h6.23v8.541H524.846z"/>
	<path d="M548.085,295.18c-8.541,0-14.632-5.531-14.632-12.951v-9.662c0-7.421,6.091-12.952,14.632-12.952
		c8.61,0,14.071,5.531,14.071,12.812v6.441h-17.222v4.97c0,2.03,1.05,3.57,3.851,3.57c2.59,0,3.64-1.609,3.64-3.57v-1.82h9.731
		v0.771C562.156,290.769,556.766,295.18,548.085,295.18z M551.305,270.747c0-1.82-1.26-3.22-3.22-3.22c-1.891,0-3.15,1.4-3.15,3.22
		v4.621h6.37V270.747z"/>
	<path d="M578.602,306.24h-3.149v-7.421h0.979c3.99,0,4.621-1.61,4.621-3.92v-34.654h11.761v33.954
		C592.813,301.34,588.613,306.24,578.602,306.24z M581.192,256.465v-8.471h11.481v8.471H581.192z"/>
	<path d="M617.804,294.619l-0.49-5.811c-2.101,4.131-5.881,6.371-10.151,6.371c-5.811,0-8.471-3.711-8.471-9.312v-25.623h11.761
		v23.733c0,1.82,1.12,3.01,2.73,3.01c1.681,0,2.87-1.4,2.87-3.221v-23.522h11.762v34.374H617.804z"/>
	<path d="M646.152,295.18c-9.241,0-14.142-4.761-14.142-10.992v-1.189h9.661v0.77c0,2.451,1.68,3.501,3.99,3.501
		c2.38,0,3.22-0.98,3.22-2.591c0-4.55-16.241-3.359-16.241-14.141c0-6.861,5.671-10.921,13.651-10.921
		c8.471,0,13.021,5.321,13.021,11.832v0.35h-9.661v-1.12c0-1.89-1.33-3.15-3.221-3.15c-1.89,0-2.94,0.84-2.94,2.24
		c0,4.271,16.242,4.061,16.242,14.702C659.733,289.578,655.953,295.18,646.152,295.18z"/>
	<path d="M678.632,269.207v15.051c0,4.131,0.63,7.421,2.73,10.361H668.9c-1.609-2.66-2.03-5.601-2.03-10.361v-15.051h-5.04v-8.541
		h5.391v-6.371l11.411-2.17v8.541h6.23v8.541H678.632z"/>
	<path d="M716.99,269.207v25.413h-11.761v-25.413h-5.11v-8.541h5.181v-0.91c0-7.141,4.13-11.971,14.142-11.971h3.149v7.351h-0.979
		c-3.99,0-4.761,1.61-4.761,3.921v1.61h6.301v8.541H716.99z"/>
	<path d="M740.931,295.18c-8.541,0-14.632-4.48-14.632-13.302v-8.961c0-8.681,6.091-13.302,14.632-13.302
		s14.631,4.621,14.631,13.302v8.961C755.562,290.699,749.472,295.18,740.931,295.18z M744.081,270.887c0-2.38-1.261-3.36-3.15-3.36
		c-1.961,0-3.221,0.98-3.221,3.36v13.092c0,2.38,1.26,3.29,3.221,3.29c1.89,0,3.15-0.91,3.15-3.29V270.887z"/>
	<path d="M782.37,271.167c-7.141-1.61-9.801,1.12-9.801,4.411v19.042h-11.761v-34.374h9.94l0.63,7.071
		c1.261-6.021,5.601-8.821,11.342-7.211L782.37,271.167z"/>
	<path d="M819.05,292.939c-2.871,8.75-5.601,13.301-15.122,13.301h-2.87v-7.771h1.47c3.431,0,4.271-0.841,5.111-3.921l0.56-2.24
		l-9.871-32.063h11.552l3.29,15.332l1.05,5.25l0.91-5.25l3.221-15.332h10.781L819.05,292.939z"/>
	<path d="M845.439,295.18c-8.541,0-14.632-4.48-14.632-13.302v-8.961c0-8.681,6.091-13.302,14.632-13.302
		s14.631,4.621,14.631,13.302v8.961C860.07,290.699,853.98,295.18,845.439,295.18z M848.59,270.887c0-2.38-1.261-3.36-3.15-3.36
		c-1.961,0-3.221,0.98-3.221,3.36v13.092c0,2.38,1.26,3.29,3.221,3.29c1.89,0,3.15-0.91,3.15-3.29V270.887z"/>
	<path d="M884.359,294.619l-0.49-5.811c-2.101,4.131-5.881,6.371-10.151,6.371c-5.811,0-8.471-3.711-8.471-9.312v-25.623h11.761
		v23.733c0,1.82,1.12,3.01,2.73,3.01c1.681,0,2.87-1.4,2.87-3.221v-23.522h11.762v34.374H884.359z"/>
	<path d="M899.966,294.619v-11.131h9.941v11.131H899.966z"/>
</g>
</svg>
