<?xml version="1.0" encoding="utf-8"?>
<!-- Generator: Adobe Illustrator 16.0.0, SVG Export Plug-In . SVG Version: 6.00 Build 0)  -->
<!DOCTYPE svg PUBLIC "-//W3C//DTD SVG 1.1//EN" "http://www.w3.org/Graphics/SVG/1.1/DTD/svg11.dtd">
<svg version="1.1" id="Layer_1" xmlns="http://www.w3.org/2000/svg" xmlns:xlink="http://www.w3.org/1999/xlink" x="0px" y="0px"
	 width="1134.058px" height="560px" viewBox="0 0 1134.058 560" enable-background="new 0 0 1134.058 560" xml:space="preserve">
<path d="M203.18,173H180v82h20.484c15.051,0,22.516-7.247,22.516-22.052v-40.565C223,179.539,216.515,173,203.18,173z M238,290.278
	V356h-15v-65.441c0-15.051-7.186-22.559-22.48-22.559H180v88h-14V160h38.65c21.909,0,32.35,10.859,32.35,32.279v38.29
	c0,18.514-7.271,26.67-18.89,30.834C230.395,264.518,238,272.813,238,290.278z"/>
<path d="M331.399,176H310v78h19.09c13.58,0,19.91-6.491,19.91-19.861v-40.53C349,181.919,343.51,176,331.399,176z M368,289.998V356
	h-18v-65.723c0-13.579-7.051-20.277-20.84-20.277H310v86h-18V160h42.06c22.26,0,32.94,10.999,32.94,32.839v38.22
	c0,18.27-7.061,26.46-18.54,30.59C360.71,264.798,368,272.988,368,289.998z"/>
<path d="M448.62,179H429v74h17.695c12.109,0,18.305-5.737,18.305-17.671v-40.495C465,184.299,459.504,179,448.62,179z M487,289.719
	V356h-22v-66.002c0-12.109-5.915-17.998-18.2-17.998H429v84h-21V160h44.47c22.61,0,33.53,11.139,33.53,33.398v38.15
	c0,18.024-6.85,26.25-18.189,30.344C480.025,265.078,487,273.163,487,289.719z"/>
<path d="M562.84,182H546v70h15.3c10.64,0,15.7-4.981,15.7-15.481v-40.46C577,186.679,572.5,182,562.84,182z M602,289.438V356h-25
	v-66.282c0-10.64-4.78-15.718-15.561-15.718H546v82h-25V160h46.88c22.96,0,34.12,11.279,34.12,33.959v38.08
	c0,17.78-7.14,26.04-18.34,30.1C595.841,265.358,602,273.338,602,289.438z"/>
<path d="M680.06,185H665v66h13.904c9.17,0,14.096-4.227,14.096-13.292v-40.424C693,189.059,688.494,185,680.06,185z M721,289.158
	V356h-28v-66.562c0-9.17-4.646-13.438-13.92-13.438H665v80h-29V160h50.289C709.6,160,721,171.419,721,194.519v38.01
	c0,17.535-6.931,25.83-17.991,29.854C715.155,265.638,721,273.513,721,289.158z"/>
<path d="M792.28,188H779v62h12.51c7.699,0,11.49-3.472,11.49-11.102v-40.39C803,191.438,799.489,188,792.28,188z M835,288.879V356
	h-32v-66.842c0-7.7-3.51-11.158-11.28-11.158H779v78h-32V160h52.699c23.66,0,35.301,11.559,35.301,35.079v37.94
	c0,17.29-6.72,25.62-17.641,29.61C829.471,265.918,835,273.688,835,288.879z"/>
<path d="M897.5,191H886v58h11.115c6.229,0,8.885-2.717,8.885-8.912v-40.354C906,193.819,903.484,191,897.5,191z M942,288.598V356
	h-35v-67.122c0-6.229-3.375-8.878-9.64-8.878H886v76h-36V160h56.109c24.01,0,35.891,11.699,35.891,35.639v37.87
	c0,17.045-6.51,25.41-17.291,29.365C936.785,266.198,942,273.863,942,288.598z"/>
</svg>
